<svg width="56" height="56" viewBox="0 0 56 56" fill="none" xmlns="http://www.w3.org/2000/svg">
<path d="M53.283 28.34L54.4646 29.5217L48.8787 35.215L43.1853 29.5217L44.2595 28.34L48.8787 32.7443L53.283 28.34ZM50.1677 28.34C50.1677 29.3426 50.1319 30.0946 50.0603 30.5959L48.3416 30.4885C48.4132 29.9872 48.449 29.2352 48.449 28.2326C48.3774 22.7183 46.3722 17.9917 42.4333 14.0529C38.4945 10.1141 33.768 8.14471 28.2537 8.14471C24.6013 8.14471 21.1996 9.0757 18.0486 10.9377C14.8975 12.7997 12.4268 15.3062 10.6365 18.4572L9.13257 17.5978C11.0662 14.1603 13.7517 11.439 17.1892 9.43378C20.6267 7.42857 24.3149 6.42596 28.2537 6.42596C34.2693 6.42596 39.4076 8.5565 43.6687 12.8176C47.9298 17.0786 50.0961 22.1812 50.1677 28.1252V28.34ZM45.8708 38.2228L47.3748 39.0822C45.4412 42.5197 42.7556 45.2411 39.3181 47.2463C35.8806 49.2515 32.1925 50.2541 28.2537 50.2541C22.3097 50.2541 17.2071 48.1594 12.946 43.9699C8.68498 39.7805 6.48283 34.7137 6.3396 28.7697V28.4474V28.34C6.3396 27.3374 6.37541 26.5855 6.44702 26.0842L8.16577 26.1916C8.09416 26.6929 8.05835 27.4448 8.05835 28.4474C8.05835 33.9618 10.0457 38.6883 14.0203 42.6271C17.9949 46.5659 22.7393 48.5353 28.2537 48.5353C31.906 48.5353 35.3077 47.6043 38.4587 45.7424C41.6098 43.8804 44.0805 41.3739 45.8708 38.2228ZM7.62866 21.465L13.2146 27.1584L12.033 28.34L7.62866 23.9357L3.11694 28.34L1.9353 27.1584L7.62866 21.465Z" fill="white"/>
</svg>
