<svg width="56" height="56" viewBox="0 0 56 56" fill="none" xmlns="http://www.w3.org/2000/svg">
<path d="M31.2275 9.5412V31.7775V33.0666L29.9385 33.4963L10.6025 38.3303C11.2471 39.6909 11.999 40.98 12.8584 42.1974C14.2191 44.0594 15.6872 45.5633 17.2627 46.7092C20.915 49.3589 24.9971 50.6838 29.5088 50.6838C32.3018 50.6838 34.9873 50.1467 37.5654 49.0724C40.0719 47.9982 42.2562 46.5301 44.1182 44.6682C45.9801 42.8062 47.4482 40.6219 48.5225 38.1154C49.5967 35.5373 50.1338 32.8517 50.1338 30.0588C50.1338 24.3296 48.1286 19.4598 44.1182 15.4494C40.6091 11.9403 36.3122 9.97089 31.2275 9.5412ZM29.5088 7.71503C35.6676 7.71503 40.9313 9.89927 45.2998 14.2678C49.6683 18.6362 51.8525 23.8999 51.8525 30.0588C51.8525 36.2176 49.6683 41.4813 45.2998 45.8498C40.9313 50.2183 35.6676 52.4025 29.5088 52.4025C24.639 52.4025 20.2347 50.9702 16.2959 48.1057C12.3571 45.2411 9.67155 41.5529 8.23926 37.0412L29.5088 31.7775V7.71503ZM26.0713 5.99628C22.6338 6.13951 19.5902 6.78404 16.9404 7.92987C14.3623 9.0757 12.1781 10.7228 10.3877 12.8713C7.09342 16.7385 5.44629 21.286 5.44629 26.5139C5.44629 29.2352 5.87598 31.7417 6.73535 34.0334L26.0713 29.092V5.99628ZM27.79 4.27753V30.4885L5.76855 36.0744C5.19564 35.0718 4.73014 33.7648 4.37207 32.1535C4.014 30.5422 3.79915 29.1994 3.72754 28.1252V26.5139C3.72754 23.9357 4.15723 21.3934 5.0166 18.8869C5.87598 16.3804 7.18294 13.9992 8.9375 11.7433C10.6921 9.48749 13.1449 7.67922 16.2959 6.31854C19.4469 4.95787 23.0635 4.27753 27.1455 4.27753H27.79Z" fill="white"/>
</svg>
