<svg width="56" height="56" viewBox="0 0 56 56" fill="none" xmlns="http://www.w3.org/2000/svg">
<path d="M20.8627 21.0353C20.8627 21.0353 21.364 20.534 22.3666 19.5314C23.3692 18.5288 25.3028 18.0275 28.1674 18.0275C31.0319 18.0275 33.4668 19.0301 35.472 21.0353C37.4773 23.0405 38.4799 25.4754 38.4799 28.34C38.4799 31.2046 37.4773 33.6395 35.472 35.6447C33.4668 37.6499 31.0319 38.6525 28.1674 38.6525C25.3028 38.6525 22.8679 37.6499 20.8627 35.6447C18.8575 33.6395 17.8549 31.2046 17.8549 28.34C17.8549 25.4754 18.8575 23.0405 20.8627 21.0353ZM22.098 34.4094C22.098 34.4094 22.5188 34.8301 23.3602 35.6716C24.2017 36.513 25.8041 36.9338 28.1674 36.9338C30.5306 36.9338 32.5538 36.0923 34.2367 34.4094C35.9196 32.7264 36.7611 30.7033 36.7611 28.34C36.7611 25.9767 35.9196 23.9536 34.2367 22.2707C32.5538 20.5877 30.5306 19.7463 28.1674 19.7463C25.8041 19.7463 23.781 20.5877 22.098 22.2707C20.4151 23.9536 19.5736 25.9767 19.5736 28.34C19.5736 30.7033 20.4151 32.7264 22.098 34.4094ZM22.2592 9.75604C21.1849 10.1141 20.1107 10.5438 19.0365 11.0451C19.1797 11.618 19.1797 12.4774 19.0365 13.6232C18.8217 15.0555 18.1771 16.3088 17.1029 17.383C15.7422 18.7437 14.0951 19.424 12.1615 19.424C11.517 19.424 11.0515 19.3882 10.765 19.3166C10.2637 20.3908 9.83403 21.465 9.47595 22.5392C10.0489 22.8973 10.6576 23.506 11.3021 24.3654C12.1615 25.5113 12.5912 26.8361 12.5912 28.34C12.5912 29.7723 12.1615 31.0972 11.3021 32.3146C10.6576 33.174 10.0489 33.7827 9.47595 34.1408C9.83403 35.215 10.2637 36.2892 10.765 37.3635C11.0515 37.2919 11.517 37.256 12.1615 37.256C14.0951 37.256 15.7422 37.9364 17.1029 39.2971C18.1771 40.3713 18.8217 41.6245 19.0365 43.0568C19.1797 44.2027 19.1797 45.062 19.0365 45.6349C20.1107 46.1363 21.1849 46.5659 22.2592 46.924C22.6172 46.3511 23.226 45.7424 24.0853 45.0978C25.3028 44.2385 26.6276 43.8088 28.0599 43.8088C29.5638 43.8088 30.8887 44.2385 32.0345 45.0978C32.8939 45.7424 33.5026 46.3511 33.8607 46.924C34.9349 46.5659 36.0092 46.1363 37.0834 45.6349C36.9401 45.062 36.9401 44.2027 37.0834 43.0568C37.2982 41.6245 37.9427 40.3713 39.017 39.2971C40.3776 37.9364 42.0248 37.256 43.9584 37.256C44.6029 37.256 45.0684 37.2919 45.3549 37.3635C45.8562 36.2892 46.2858 35.215 46.6439 34.1408C46.071 33.7827 45.4623 33.174 44.8177 32.3146C43.9584 31.0972 43.5287 29.7723 43.5287 28.34C43.5287 26.8361 43.9584 25.5113 44.8177 24.3654C45.4623 23.506 46.071 22.8973 46.6439 22.5392C46.2858 21.465 45.8562 20.3908 45.3549 19.3166C45.0684 19.3882 44.6029 19.424 43.9584 19.424C42.0248 19.424 40.3776 18.7437 39.017 17.383C37.9427 16.3088 37.2982 15.0555 37.0834 13.6232C36.9401 12.4774 36.9401 11.618 37.0834 11.0451C36.0092 10.5438 34.9349 10.1141 33.8607 9.75604C33.5026 10.329 32.8939 10.9377 32.0345 11.5822C30.8887 12.4416 29.5638 12.8713 28.0599 12.8713C26.6276 12.8713 25.3028 12.4416 24.0853 11.5822C23.226 10.9377 22.6172 10.329 22.2592 9.75604ZM33.0013 7.71503C35.293 8.28794 37.334 9.14732 39.1244 10.2932C38.1218 12.5132 38.4799 14.4826 40.1986 16.2014C41.2012 17.204 42.4545 17.7053 43.9584 17.7053C44.8177 17.7053 45.5339 17.562 46.1068 17.2756C47.2526 19.0659 48.112 21.107 48.6849 23.3986C46.3933 24.258 45.2474 25.9051 45.2474 28.34C45.2474 30.7749 46.3933 32.4221 48.6849 33.2814C48.112 35.5731 47.2526 37.6141 46.1068 39.4045C45.5339 39.118 44.8177 38.9748 43.9584 38.9748C42.4545 38.9748 41.2012 39.4761 40.1986 40.4787C38.4799 42.1974 38.1218 44.1668 39.1244 46.3869C37.334 47.5327 35.293 48.3921 33.0013 48.965C32.142 46.6734 30.4948 45.5275 28.0599 45.5275C25.625 45.5275 23.9779 46.6734 23.1185 48.965C20.8269 48.3921 18.7858 47.5327 16.9955 46.3869C17.9981 44.1668 17.64 42.1974 15.9213 40.4787C14.9187 39.4761 13.6654 38.9748 12.1615 38.9748C11.3021 38.9748 10.586 39.118 10.0131 39.4045C8.86723 37.6141 8.00785 35.5731 7.43494 33.2814C9.7266 32.4221 10.8724 30.7749 10.8724 28.34C10.8724 25.9051 9.7266 24.258 7.43494 23.3986C8.00785 21.107 8.86723 19.0659 10.0131 17.2756C10.586 17.562 11.3021 17.7053 12.1615 17.7053C13.6654 17.7053 14.9187 17.204 15.9213 16.2014C17.64 14.4826 17.9981 12.5132 16.9955 10.2932C18.7858 9.14732 20.8269 8.28794 23.1185 7.71503C23.9779 10.0067 25.625 11.1525 28.0599 11.1525C30.4948 11.1525 32.142 10.0067 33.0013 7.71503Z" fill="white"/>
</svg>
